<?xml version="1.0"?>
<svg xmlns="http://www.w3.org/2000/svg" xmlns:xlink="http://www.w3.org/1999/xlink" version="1.1" id="Capa_1" x="0px" y="0px" viewBox="0 0 512 512" style="enable-background:new 0 0 512 512;" xml:space="preserve" width="512px" height="512px">
	<g>
		<g>
			<g>
				<path d="M455.677,403.988C471.77,390.222,482,369.789,482,347c0-41.355-33.645-75-75-75c-41.463,0-76,33.534-76,75    c0,21.688,9.409,42.295,26.877,57.018c-9.913,5.106-19.013,11.714-26.852,19.604c-7.671-7.841-16.555-14.488-26.348-19.634    C320.77,390.222,331,369.789,331,347c0-41.355-33.645-75-75-75c-41.355,0-75,33.645-75,75c0,22.789,10.23,43.222,26.323,56.988    c-9.763,5.13-18.623,11.752-26.278,19.561c-7.747-7.925-16.647-14.511-26.34-19.586C170.782,390.197,181,369.775,181,347    c0-41.355-33.645-75-75-75s-75,33.645-75,75c0,22.706,10.156,43.072,26.149,56.837C23.22,421.365,0,456.544,0,497    c0,8.284,6.716,15,15,15c2.611,0,471.876,0,482,0c8.284,0,15-6.716,15-15C512,456.66,489.129,421.566,455.677,403.988z M106,302    c24.813,0,45,20.187,45,45s-20.187,45-45,45s-45-20.187-45-45S81.187,302,106,302z M152.076,482H31.527    c7.062-34.191,37.771-60,74.473-60c22.12,0,42.84,9.68,57.016,26.27C157.57,458.62,153.802,469.984,152.076,482z M256,302    c24.813,0,45,20.187,45,45s-20.187,45-45,45s-45-20.187-45-45S231.187,302,256,302z M182.507,482    c6.969-34.191,37.274-60,73.493-60s66.524,25.809,73.493,60C324.556,482,188.667,482,182.507,482z M407,302    c24.813,0,45,20.187,45,45s-20.187,45-45,45c-24.935,0-46-20.607-46-45S382.065,302,407,302z M359.924,482    c-1.724-12.002-5.485-23.354-10.922-33.695C363.221,431.899,384.692,422,407,422c36.219,0,66.524,25.809,73.493,60H359.924z" data-original="#000000" class="active-path" data-old_color="#740909" fill="#740202"/>
			</g>
		</g>
	</g> 
</svg>
