<?xml version="1.0" standalone="no"?>
<!DOCTYPE svg PUBLIC "-//W3C//DTD SVG 20010904//EN"
 "http://www.w3.org/TR/2001/REC-SVG-20010904/DTD/svg10.dtd">
<svg version="1.0" xmlns="http://www.w3.org/2000/svg"
 width="230.000000pt" height="167.000000pt" viewBox="0 0 230.000000 167.000000"
 preserveAspectRatio="xMidYMid meet">
<metadata>
Created by potrace 1.15, written by Peter Selinger 2001-2017
</metadata>
<g transform="translate(0.000000,167.000000) scale(0.100000,-0.100000)"
fill="#fff" stroke="none">
<path d="M290 1120 l0 -370 50 0 50 0 0 120 c0 113 1 120 20 120 13 0 51 -40
116 -120 l96 -120 55 0 55 0 -28 38 c-16 20 -63 81 -106 135 -43 54 -78 102
-78 107 0 6 45 58 100 117 l100 108 -52 3 -53 4 -95 -101 c-52 -56 -103 -101
-112 -101 -17 0 -18 17 -18 215 l0 215 -50 0 -50 0 0 -370z"/>
<path d="M1147 1256 c-75 -27 -112 -82 -104 -155 6 -57 41 -90 123 -120 124
-44 144 -62 130 -117 -7 -28 -53 -54 -94 -54 -15 0 -52 12 -82 27 l-53 26 -19
-22 c-26 -34 -23 -45 25 -72 35 -20 55 -24 127 -24 70 0 91 4 120 22 60 38 87
107 69 176 -12 45 -54 75 -153 107 -105 34 -129 68 -81 116 23 23 32 25 78 21
29 -2 67 -10 85 -18 32 -13 35 -13 54 11 l20 24 -28 22 c-52 42 -147 55 -217
30z"/>
<path d="M820 1005 l0 -255 50 0 50 0 0 255 0 255 -50 0 -50 0 0 -255z"/>
<path d="M1492 1051 c3 -193 5 -212 24 -237 41 -56 69 -69 149 -69 66 0 78 3
119 32 l45 32 3 -27 c3 -24 8 -27 46 -30 l42 -3 0 255 0 256 -50 0 -50 0 0
-190 0 -190 -42 -30 c-47 -34 -118 -41 -155 -15 -34 24 -43 76 -43 258 l0 167
-46 0 -45 0 3 -209z"/>
<path d="M763 633 c-26 -5 -27 -12 -12 -66 6 -22 8 -41 6 -44 -3 -2 -36 -8
-74 -11 -64 -7 -68 -8 -68 -32 0 -25 0 -25 82 -22 l81 4 7 -34 c3 -18 9 -40
11 -49 4 -14 -12 -18 -111 -29 l-115 -12 0 -29 c0 -17 5 -29 13 -29 6 1 59 7
117 14 58 8 107 12 109 10 2 -2 13 -44 25 -94 12 -50 25 -91 29 -91 4 1 16 1
27 1 26 0 26 22 0 120 -10 41 -18 75 -17 76 1 0 49 6 106 12 56 6 105 13 107
15 3 3 2 16 -1 29 l-6 24 -107 -12 c-59 -7 -109 -11 -110 -9 -8 7 -22 87 -17
94 2 5 39 12 80 16 75 7 76 7 73 33 -3 30 -9 31 -115 19 l-62 -8 -7 38 c-4 21
-7 46 -6 56 1 17 -4 18 -45 10z"/>
<path d="M1490 574 c-8 -1 -73 -6 -143 -9 l-128 -7 3 -27 3 -26 123 3 c67 1
122 0 122 -3 0 -40 -120 -172 -232 -255 l-77 -58 24 -22 24 -23 43 28 c24 16
71 55 105 88 73 70 55 74 181 -47 l72 -71 26 26 25 26 -96 91 -97 90 52 77 51
78 -22 23 c-22 23 -28 25 -59 18z"/>
</g>
</svg>
