<?xml version="1.0" encoding="UTF-8"?>
<svg width="512px" height="240px" viewBox="0 0 512 240" version="1.1" xmlns="http://www.w3.org/2000/svg" xmlns:xlink="http://www.w3.org/1999/xlink">
    <!-- Generator: Sketch 47.1 (45422) - http://www.bohemiancoding.com/sketch -->
    <title>Shape</title>
    <desc>Created with Sketch.</desc>
    <defs></defs>
    <g id="Page-1" stroke="none" stroke-width="1" fill="none" fill-rule="evenodd">
        <g id="team" fill-rule="nonzero" fill="#FF4A4A">
            <path d="M455.677,131.988 C471.77,118.222 482,97.789 482,75 C482,33.645 448.355,0 407,0 C365.537,0 331,33.534 331,75 C331,96.688 340.409,117.295 357.877,132.018 C347.964,137.124 338.864,143.732 331.025,151.622 C323.354,143.781 314.47,137.134 304.677,131.988 C320.77,118.222 331,97.789 331,75 C331,33.645 297.355,0 256,0 C214.645,0 181,33.645 181,75 C181,97.789 191.23,118.222 207.323,131.988 C197.56,137.118 188.7,143.74 181.045,151.549 C173.298,143.624 164.398,137.038 154.705,131.963 C170.782,118.197 181,97.775 181,75 C181,33.645 147.355,0 106,0 C64.645,0 31,33.645 31,75 C31,97.706 41.156,118.072 57.149,131.837 C23.22,149.365 0,184.544 0,225 C0,233.284 6.716,240 15,240 C17.611,240 486.876,240 497,240 C505.284,240 512,233.284 512,225 C512,184.66 489.129,149.566 455.677,131.988 Z M106,30 C130.813,30 151,50.187 151,75 C151,99.813 130.813,120 106,120 C81.187,120 61,99.813 61,75 C61,50.187 81.187,30 106,30 Z M152.076,210 L31.527,210 C38.589,175.809 69.298,150 106,150 C128.12,150 148.84,159.68 163.016,176.27 C157.57,186.62 153.802,197.984 152.076,210 Z M256,30 C280.813,30 301,50.187 301,75 C301,99.813 280.813,120 256,120 C231.187,120 211,99.813 211,75 C211,50.187 231.187,30 256,30 Z M182.507,210 C189.476,175.809 219.781,150 256,150 C292.219,150 322.524,175.809 329.493,210 C324.556,210 188.667,210 182.507,210 Z M407,30 C431.813,30 452,50.187 452,75 C452,99.813 431.813,120 407,120 C382.065,120 361,99.393 361,75 C361,50.607 382.065,30 407,30 Z M359.924,210 C358.2,197.998 354.439,186.646 349.002,176.305 C363.221,159.899 384.692,150 407,150 C443.219,150 473.524,175.809 480.493,210 L359.924,210 Z" id="Shape"></path>
        </g>
    </g>
</svg>